<?xml version="1.0" encoding="UTF-8"?>
<svg version="1.1" xmlns="http://www.w3.org/2000/svg" width="162" height="162">
<path d="M0 0 C5.35275303 -0.07482879 10.70519351 -0.12891907 16.05834961 -0.16479492 C17.8748099 -0.17976973 19.69123474 -0.20015684 21.50756836 -0.22631836 C39.78460486 -0.48274996 39.78460486 -0.48274996 47.91894531 2.32592773 C50.26172224 3.1795271 50.26172224 3.1795271 53.9375 3.25 C59.90112719 3.80909005 65.18818337 7.66637344 70 11 C70.33 11.66 70.66 12.32 71 13 C71.99 13.33 72.98 13.66 74 14 C74.33 14.66 74.66 15.32 75 16 C75.99 16.33 76.98 16.66 78 17 C78.68765675 18.32263011 79.35205163 19.65747062 80 21 C81.63450527 22.70137198 81.63450527 22.70137198 83.5 24.1875 C84.1084375 24.69667969 84.716875 25.20585937 85.34375 25.73046875 C86.98469533 27.07117638 86.98469533 27.07117638 89 28 C89.12890625 28.54785156 89.2578125 29.09570312 89.390625 29.66015625 C90.24188828 32.92878898 92.01588878 35.57512896 93.75 38.4375 C101.27335158 51.19529476 104.23815919 62.74174218 104.35009766 77.43139648 C104.36649485 78.99925752 104.39356424 80.56704904 104.43212891 82.13452148 C104.78250163 96.49218627 102.04148059 107.9483596 95.25 120.75 C92.86484997 125.2649963 92.86484997 125.2649963 91 130 C89.67465585 130.68241124 88.34003728 131.34691324 87 132 C85.10342187 133.79453656 85.10342187 133.79453656 83.375 135.875 C82.78460938 136.55304688 82.19421875 137.23109375 81.5859375 137.9296875 C79.93970453 139.93626214 79.93970453 139.93626214 78.91796875 142.22265625 C78.61503906 142.80917969 78.31210938 143.39570313 78 144 C76.67405895 144.36162029 75.34061543 144.69728039 74 145 C73.67 145.99 73.34 146.98 73 148 C71.35 148.33 69.7 148.66 68 149 C67.67 149.99 67.34 150.98 67 152 C65.01363702 152.70626239 63.01151741 153.36893571 61 154 C60.0409375 154.7734375 60.0409375 154.7734375 59.0625 155.5625 C56.15425098 157.58946144 53.51535246 157.55360604 50 158 C47.2644122 158.70907725 44.55481473 159.48387802 41.84375 160.28125 C29.14203044 163.49157472 16.00297073 162.66660907 3.3671875 159.75390625 C-0.06279494 158.92789934 -0.06279494 158.92789934 -3.8671875 158.52734375 C-4.90101562 158.35332031 -5.93484375 158.17929688 -7 158 C-7.33 157.34 -7.66 156.68 -8 156 C-9.36125 155.814375 -9.36125 155.814375 -10.75 155.625 C-14.59181618 154.8861892 -16.11577274 153.58840908 -19 151 C-22.28226818 148.22135395 -22.28226818 148.22135395 -25.9765625 146.0859375 C-28.2053974 144.88976742 -29.26422017 143.73108427 -30.8125 141.75 C-34.23355389 137.58902351 -38.13005632 133.43497184 -43 131 C-43.33 130.01 -43.66 129.02 -44 128 C-44.66 127.67 -45.32 127.34 -46 127 C-46.13792969 126.29230469 -46.27585937 125.58460937 -46.41796875 124.85546875 C-47.1444572 121.29128715 -48.65061093 118.54731192 -50.3125 115.3125 C-59.70683772 95.92598115 -60.66662185 74.40658255 -54 54 C-48.75904734 39.83853439 -40.92193073 29.51353106 -30.00390625 19.12890625 C-27.79285038 17.07849936 -27.79285038 17.07849936 -27 14 C-26.01 13.67 -25.02 13.34 -24 13 C-23.54625 12.525625 -23.0925 12.05125 -22.625 11.5625 C-20.60462373 9.61983051 -18.61913777 8.9402033 -16 8 C-13.94197021 7.07930738 -13.94197021 7.07930738 -12.3125 5.5 C-9.28365756 3.53534545 -6.54871702 3.45165489 -3 3 C-2.01 2.34 -1.02 1.68 0 1 C0 0.67 0 0.34 0 0 Z " fill="#7C00C8" transform="translate(58,0)"/>
<path d="M0 0 C3.625 0.375 3.625 0.375 6.0625 1.9375 C8.1498128 5.19370797 7.9165423 7.58495016 7.625 11.375 C8.615 10.715 9.605 10.055 10.625 9.375 C12.7109375 9.00390625 12.7109375 9.00390625 15 8.9375 C15.75023437 8.89753906 16.50046875 8.85757813 17.2734375 8.81640625 C21.03770931 9.71057713 22.30062334 11.28805257 24.625 14.375 C25.32252992 18.11461915 25.20685108 21.78937684 25.11328125 25.58203125 C25.10620651 26.66256271 25.09913177 27.74309418 25.09184265 28.85636902 C25.06389847 32.30078945 25.00115633 35.74357255 24.9375 39.1875 C24.91241733 41.52536712 24.88960411 43.86325976 24.86914062 46.20117188 C24.81407176 51.92633801 24.73044419 57.65055203 24.625 63.375 C25.285 63.375 25.945 63.375 26.625 63.375 C26.83125 62.7975 27.0375 62.22 27.25 61.625 C29.24002166 58.36860092 31.21733999 57.07883 34.625 55.375 C37.55191025 55.02560367 39.87297823 55.32043428 42.625 56.375 C46.3304232 59.47545614 47.47538231 61.27156951 48.125 66.0625 C46.44472618 74.57806244 35.44395265 81.60530471 29.2578125 86.90234375 C27.08538082 88.86169003 25.38759907 91.04382059 23.625 93.375 C22.49486522 94.78357378 21.34752378 96.1784373 20.1875 97.5625 C19.63191406 98.23667969 19.07632813 98.91085938 18.50390625 99.60546875 C13.09727709 104.69736689 5.81307495 103.77773236 -1.125 103.8125 C-2.26710937 103.84537109 -3.40921875 103.87824219 -4.5859375 103.91210938 C-14.10861075 103.97231018 -20.13752395 101.49483788 -27.1875 95.1875 C-34.39080804 87.24807933 -34.97570768 78.19250196 -34.90625 67.88671875 C-34.9100769 66.62535599 -34.91390381 65.36399323 -34.91784668 64.06440735 C-34.92055553 61.41402867 -34.91531626 58.76515183 -34.89648438 56.11499023 C-34.87357838 52.72766453 -34.88691634 49.34159879 -34.91077423 45.95431805 C-34.92872431 42.70257334 -34.91615322 39.45097988 -34.90625 36.19921875 C-34.91434692 34.98771652 -34.92244385 33.77621429 -34.93078613 32.52799988 C-34.91817749 31.39945084 -34.90556885 30.27090179 -34.89257812 29.1081543 C-34.88939575 28.11905563 -34.88621338 27.12995697 -34.88293457 26.11088562 C-34.22745825 22.58029654 -32.88929121 20.90072904 -30.375 18.375 C-26.8125 17.4375 -26.8125 17.4375 -23.375 17.375 C-22.385 18.035 -21.395 18.695 -20.375 19.375 C-20.271875 18.281875 -20.16875 17.18875 -20.0625 16.0625 C-19.375 12.375 -19.375 12.375 -18.3125 10.4375 C-15.09927107 8.67540672 -11.9907826 9.19717463 -8.375 9.375 C-7.92125 8.26125 -7.4675 7.1475 -7 6 C-4.53629032 0.50403226 -4.53629032 0.50403226 0 0 Z " fill="#8602CC" transform="translate(75.375,28.625)"/>
<path d="M0 0 C3.34467049 1.42148496 4.5129874 3.02758831 6.5 6.0625 C7.04589844 9.3840332 7.04589844 9.3840332 7.109375 13.11328125 C7.13417938 14.10149117 7.13417938 14.10149117 7.15948486 15.10966492 C7.20777556 17.19820651 7.22929082 19.28602122 7.25 21.375 C7.27817596 22.79756224 7.30810568 24.2200909 7.33984375 25.64257812 C7.41352563 29.11572825 7.46321715 32.58874072 7.5 36.0625 C10.47 36.3925 13.44 36.7225 16.5 37.0625 C16.5 37.3925 16.5 37.7225 16.5 38.0625 C15.5255896 38.092229 15.5255896 38.092229 14.53149414 38.12255859 C11.54147478 38.21877933 8.55206352 38.32805899 5.5625 38.4375 C4.54091797 38.4684375 3.51933594 38.499375 2.46679688 38.53125 C-8.13343594 38.42619445 -8.13343594 38.42619445 -17.21435547 42.76660156 C-19.81920792 47.41833579 -19.05417922 52.98423864 -19.0625 58.1875 C-19.09923828 59.3734375 -19.13597656 60.559375 -19.17382812 61.78125 C-19.21436976 69.94363173 -18.07371416 75.89104769 -12.5 82.0625 C-5.40653119 88.40290057 1.61194154 88.92314203 10.8125 88.625 C12.54209961 88.62209961 12.54209961 88.62209961 14.30664062 88.61914062 C20.97439015 88.51477585 24.83814197 87.9106118 30.1875 83.75 C34.70796538 77.93797308 33.90641339 70.07645284 33.92553711 63.12207031 C33.93747294 61.0671594 33.98675932 59.01521977 34.03710938 56.9609375 C34.36992597 49.04861631 34.36992597 49.04861631 30.97265625 42.25 C30.15667969 41.528125 29.34070313 40.80625 28.5 40.0625 C28.5 39.4025 28.5 38.7425 28.5 38.0625 C32.375 38.9375 32.375 38.9375 33.5 40.0625 C33.83 27.8525 34.16 15.6425 34.5 3.0625 C35.16 3.0625 35.82 3.0625 36.5 3.0625 C36.5 19.2325 36.5 35.4025 36.5 52.0625 C37.16 52.0625 37.82 52.0625 38.5 52.0625 C38.70625 51.485 38.9125 50.9075 39.125 50.3125 C41.11502166 47.05610092 43.09233999 45.76633 46.5 44.0625 C49.42691025 43.71310367 51.74797823 44.00793428 54.5 45.0625 C58.2054232 48.16295614 59.35038231 49.95906951 60 54.75 C58.31972618 63.26556244 47.31895265 70.29280471 41.1328125 75.58984375 C38.96038082 77.54919003 37.26259907 79.73132059 35.5 82.0625 C34.36986522 83.47107378 33.22252378 84.8659373 32.0625 86.25 C31.50691406 86.92417969 30.95132813 87.59835938 30.37890625 88.29296875 C24.97227709 93.38486689 17.68807495 92.46523236 10.75 92.5 C9.60789063 92.53287109 8.46578125 92.56574219 7.2890625 92.59960938 C-2.23361075 92.65981018 -8.26252395 90.18233788 -15.3125 83.875 C-22.51580804 75.93557933 -23.10070768 66.88000196 -23.03125 56.57421875 C-23.0350769 55.31285599 -23.03890381 54.05149323 -23.04284668 52.75190735 C-23.04555553 50.10152867 -23.04031626 47.45265183 -23.02148438 44.80249023 C-22.99857838 41.41516453 -23.01191634 38.02909879 -23.03577423 34.64181805 C-23.05372431 31.39007334 -23.04115322 28.13847988 -23.03125 24.88671875 C-23.03934692 23.67521652 -23.04744385 22.46371429 -23.05578613 21.21549988 C-23.04317749 20.08695084 -23.03056885 18.95840179 -23.01757812 17.7956543 C-23.01439575 16.80655563 -23.01121338 15.81745697 -23.00793457 14.79838562 C-22.35242572 11.26762135 -21.01674031 9.58620087 -18.5 7.0625 C-14.58727759 6.10148046 -12.33347302 5.78467566 -8.5 7.0625 C-7.84 6.0725 -7.18 5.0825 -6.5 4.0625 C-3.29376329 0.08234408 -3.29376329 0.08234408 0 0 Z " fill="#F9F4FC" transform="translate(63.5,39.9375)"/>
<path d="M0 0 C3.625 0.375 3.625 0.375 6.0625 1.9375 C8.1498128 5.19370797 7.9165423 7.58495016 7.625 11.375 C8.615 10.715 9.605 10.055 10.625 9.375 C12.74609375 9.0390625 12.74609375 9.0390625 15.0625 9 C15.82433594 8.97164062 16.58617187 8.94328125 17.37109375 8.9140625 C20.65208116 9.58504433 21.63125443 10.67866672 23.625 13.375 C24.12038132 16.36348275 23.9509565 19.280279 23.796875 22.296875 C23.75509125 23.58685394 23.75509125 23.58685394 23.71246338 24.90289307 C23.61922875 27.64468875 23.49749962 30.38437116 23.375 33.125 C23.30671186 34.98560897 23.24028355 36.84628719 23.17578125 38.70703125 C23.01374321 43.26410483 22.82614574 47.81949184 22.625 52.375 C20.645 51.385 18.665 50.395 16.625 49.375 C16.13 50.365 16.13 50.365 15.625 51.375 C4.405 51.045 -6.815 50.715 -18.375 50.375 C-18.375 50.045 -18.375 49.715 -18.375 49.375 C-13.755 49.045 -9.135 48.715 -4.375 48.375 C-5.365 48.045 -6.355 47.715 -7.375 47.375 C-7.39481934 46.38580566 -7.41463867 45.39661133 -7.43505859 44.37744141 C-7.51103456 40.71327923 -7.59976352 37.04951836 -7.69238281 33.38574219 C-7.73070585 31.79890862 -7.76555288 30.21198719 -7.796875 28.625 C-7.84245431 26.34603434 -7.90045838 24.06767532 -7.9609375 21.7890625 C-7.97248871 21.07755035 -7.98403992 20.36603821 -7.99594116 19.63296509 C-8.00908239 15.55396343 -8.00908239 15.55396343 -10.375 12.375 C-13.68183466 12.66483269 -13.68183466 12.66483269 -16.375 14.375 C-16.53480437 16.82108998 -16.63429447 19.24231058 -16.69140625 21.69140625 C-16.71218735 22.42246078 -16.73296844 23.15351532 -16.75437927 23.90672302 C-16.81995024 26.25021656 -16.87879432 28.59382539 -16.9375 30.9375 C-16.98067808 32.52279855 -17.02429213 34.10808529 -17.06835938 35.69335938 C-17.1756392 39.58712037 -17.2768849 43.48099772 -17.375 47.375 C-17.705 47.375 -18.035 47.375 -18.375 47.375 C-18.40005615 46.51745117 -18.4251123 45.65990234 -18.45092773 44.77636719 C-18.54623412 41.5856563 -18.64545751 38.39509781 -18.74731445 35.20458984 C-18.7905455 33.82540622 -18.83222866 32.44617315 -18.87231445 31.06689453 C-18.93030403 29.08093062 -18.99437723 27.09514731 -19.05859375 25.109375 C-19.11358032 23.31838379 -19.11358032 23.31838379 -19.16967773 21.49121094 C-19.2643621 18.48984329 -19.2643621 18.48984329 -19.98461914 16.12597656 C-20.375 14.375 -20.375 14.375 -18.9375 11.625 C-16.14684325 9.17466725 -15.6350012 9.05626554 -12.125 9.0625 C-10.26875 9.2171875 -10.26875 9.2171875 -8.375 9.375 C-7.92125 8.26125 -7.4675 7.1475 -7 6 C-4.53629032 0.50403226 -4.53629032 0.50403226 0 0 Z " fill="#EBD9F7" transform="translate(75.375,28.625)"/>
<path d="M0 0 C3.17456007 2.90061147 3.94929259 4.56759666 4.45410156 8.87231445 C4.45347366 10.36945278 4.43119127 11.86669248 4.390625 13.36328125 C4.38496521 14.15526413 4.37930542 14.94724701 4.37347412 15.76322937 C4.35117308 18.28028094 4.30099139 20.79588243 4.25 23.3125 C4.22992675 25.02406791 4.21167742 26.73565824 4.1953125 28.44726562 C4.15132925 32.63206485 4.08234769 36.815787 4 41 C3.49210937 40.72285156 2.98421875 40.44570312 2.4609375 40.16015625 C1.42839844 39.61681641 1.42839844 39.61681641 0.375 39.0625 C-0.29789063 38.70285156 -0.97078125 38.34320313 -1.6640625 37.97265625 C-4.41827908 36.82583363 -7.05258551 36.4011524 -10 36 C-10.07416067 31.35526018 -10.12860615 26.71086501 -10.16479492 22.06567383 C-10.17988094 20.48553464 -10.2003525 18.90543731 -10.22631836 17.32543945 C-10.26271126 15.05409415 -10.27972762 12.78330241 -10.29296875 10.51171875 C-10.30845261 9.80536789 -10.32393646 9.09901703 -10.33988953 8.3712616 C-10.34087744 5.4917639 -10.33024731 3.491072 -8.6965332 1.06176758 C-5.73203268 -0.79355157 -3.37775004 -0.47407018 0 0 Z " fill="#7B06CC" transform="translate(94,40)"/>
<path d="M0 0 C3.05421086 0.37246474 3.69851858 0.93380954 5.5625 3.3125 C5.92326355 5.2297821 5.92326355 5.2297821 5.90307617 7.41674805 C5.90284958 8.23737228 5.90262299 9.05799652 5.90238953 9.90348816 C5.88690567 10.78482925 5.87142181 11.66617035 5.85546875 12.57421875 C5.85122391 13.48001175 5.84697906 14.38580475 5.84260559 15.31904602 C5.82580848 18.21299933 5.7881545 21.10625706 5.75 24 C5.73495449 25.96157849 5.72126585 27.92316789 5.70898438 29.88476562 C5.67590157 34.69427856 5.62411222 39.50327133 5.5625 44.3125 C2.2625 44.3125 -1.0375 44.3125 -4.4375 44.3125 C-4.48684399 38.36768819 -4.52319282 32.42299491 -4.54736328 26.47802734 C-4.55743671 24.45456873 -4.57109595 22.43112472 -4.58837891 20.40771484 C-4.61256847 17.50354411 -4.62396949 14.59956539 -4.6328125 11.6953125 C-4.64313507 10.78693634 -4.65345764 9.87856018 -4.66409302 8.94265747 C-4.66424408 8.10193695 -4.66439514 7.26121643 -4.66455078 6.39501953 C-4.668992 5.65333527 -4.67343323 4.911651 -4.67800903 4.14749146 C-4.27350238 1.06126123 -2.95278349 0.37856199 0 0 Z " fill="#7D08CD" transform="translate(75.4375,31.6875)"/>
<path d="M0 0 C2.4375 0.8125 2.4375 0.8125 4.4375 2.8125 C4.61245606 5.32170846 4.66919569 7.71874941 4.6328125 10.2265625 C4.6299826 10.95620209 4.62715271 11.68584167 4.62423706 12.43759155 C4.61303002 14.77106028 4.5879251 17.10414703 4.5625 19.4375 C4.55247085 21.01822363 4.54334489 22.59895327 4.53515625 24.1796875 C4.51308905 28.05743914 4.47855615 31.93490478 4.4375 35.8125 C1.1375 35.8125 -2.1625 35.8125 -5.5625 35.8125 C-5.63666067 31.16776018 -5.69110615 26.52336501 -5.72729492 21.87817383 C-5.74238094 20.29803464 -5.7628525 18.71793731 -5.78881836 17.13793945 C-5.82521126 14.86659415 -5.84222762 12.59580241 -5.85546875 10.32421875 C-5.87095261 9.61786789 -5.88643646 8.91151703 -5.90238953 8.1837616 C-5.90339395 5.25612372 -5.88733006 3.28634432 -4.2043457 0.83129883 C-2.5625 -0.1875 -2.5625 -0.1875 0 0 Z " fill="#7C03CC" transform="translate(63.5625,40.1875)"/>
<path d="M0 0 C3.05623277 2.09110663 3.86463014 3.29306849 4.5625 6.9375 C3.79804729 11.0995203 2.17959998 12.21785002 -1 15 C-2.29629302 16.32883594 -3.58761994 17.66252733 -4.875 19 C-8.27968814 22.53289816 -11.98079393 25.21076783 -16 28 C-17.22298423 11.1499951 -17.22298423 11.1499951 -14.2890625 5.9921875 C-9.82345933 1.6233122 -6.37146353 -0.63714635 0 0 Z " fill="#840ACD" transform="translate(116,87)"/>
<path d="M0 0 C2.9375 0.875 2.9375 0.875 4.9375 3.875 C5.16455078 6.41870117 5.16455078 6.41870117 5.1328125 9.41796875 C5.12314453 11.02768555 5.12314453 11.02768555 5.11328125 12.66992188 C5.09652344 13.78947266 5.07976563 14.90902344 5.0625 16.0625 C5.05347656 17.19365234 5.04445313 18.32480469 5.03515625 19.49023438 C5.01156862 22.28536828 4.978653 25.08007845 4.9375 27.875 C3.865 27.99875 2.7925 28.1225 1.6875 28.25 C-1.50916333 28.78277722 -3.30341652 29.37337492 -6.0625 30.875 C-6.13671454 26.94239056 -6.19113136 23.01005278 -6.22729492 19.0769043 C-6.24978333 17.08172299 -6.28790198 15.08673787 -6.32617188 13.09179688 C-6.33583984 11.83818359 -6.34550781 10.58457031 -6.35546875 9.29296875 C-6.3711792 8.13563232 -6.38688965 6.9782959 -6.40307617 5.78588867 C-6.0625 2.875 -6.0625 2.875 -4.7355957 0.96606445 C-3.0625 -0.125 -3.0625 -0.125 0 0 Z " fill="#8209CD" transform="translate(50.0625,49.125)"/>
<path d="M0 0 C1.18797432 0.00848969 1.18797432 0.00848969 2.39994812 0.01715088 C4.91699969 0.03945192 7.43260118 0.08963361 9.94921875 0.140625 C11.66078666 0.16069825 13.37237699 0.17894758 15.08398438 0.1953125 C19.2687836 0.23929575 23.45250575 0.30827731 27.63671875 0.390625 C27.63671875 1.380625 27.63671875 2.370625 27.63671875 3.390625 C26.55140869 3.41568115 25.46609863 3.4407373 24.34790039 3.46655273 C20.33540275 3.56046255 16.32308493 3.66072267 12.31079102 3.76293945 C10.57157587 3.80635073 8.8323164 3.84802112 7.09301758 3.88793945 C4.59833387 3.94549268 2.10387465 4.0092292 -0.390625 4.07421875 C-1.17291977 4.09093124 -1.95521454 4.10764374 -2.76121521 4.12486267 C-6.36199906 3.89711231 -6.36199906 3.89711231 -9.36328125 5.390625 C-9.72974421 9.23484286 -9.73521593 13.09381466 -9.80078125 16.953125 C-9.84654297 18.02626953 -9.89230469 19.09941406 -9.93945312 20.20507812 C-10.03318431 26.85999255 -9.29301853 30.7976177 -4.89233398 35.88867188 C-0.39349315 40.30777914 3.55805207 40.87548376 9.63671875 41.390625 C9.63671875 42.380625 9.63671875 43.370625 9.63671875 44.390625 C3.67095618 44.88777188 -0.38804688 43.77378437 -5.36328125 40.390625 C-11.898721 33.85518525 -13.75497093 27.77702237 -13.87109375 18.79492188 C-13.86851563 17.77462891 -13.8659375 16.75433594 -13.86328125 15.703125 C-13.89164063 14.67123047 -13.92 13.63933594 -13.94921875 12.57617188 C-13.95179687 11.58294922 -13.954375 10.58972656 -13.95703125 9.56640625 C-13.96412109 8.66833252 -13.97121094 7.77025879 -13.97851562 6.8449707 C-13.36328125 4.390625 -13.36328125 4.390625 -11.34887695 2.09155273 C-7.51859295 -0.0906035 -4.28295499 -0.11609303 0 0 Z " fill="#E7D1F5" transform="translate(60.36328125,81.609375)"/>
<path d="M0 0 C0.33 0 0.66 0 1 0 C1 10.56 1 21.12 1 32 C4.96 32 8.92 32 13 32 C13 22.1 13 12.2 13 2 C13.33 2 13.66 2 14 2 C14.33 11.9 14.66 21.8 15 32 C17.97 32.33 20.94 32.66 24 33 C24 33.33 24 33.66 24 34 C8.655 34.495 8.655 34.495 -7 35 C-6.67 34.34 -6.34 33.68 -6 33 C-4.35 33 -2.7 33 -1 33 C-1.0807386 29.06165122 -1.19359377 25.12486673 -1.3125 21.1875 C-1.33505859 20.06794922 -1.35761719 18.94839844 -1.38085938 17.79492188 C-1.41630859 16.72177734 -1.45175781 15.64863281 -1.48828125 14.54296875 C-1.51446533 13.55321045 -1.54064941 12.56345215 -1.56762695 11.54370117 C-1.80865684 8.96671734 -1.80865684 8.96671734 -3.37182617 7.14575195 C-5.0182636 5.73775712 -5.0182636 5.73775712 -7.5625 6.125 C-10.3261611 6.84389168 -10.3261611 6.84389168 -12 10 C-12.36927046 13.0042707 -12.36927046 13.0042707 -12.4140625 16.41796875 C-12.45273437 17.67158203 -12.49140625 18.92519531 -12.53125 20.21679688 C-12.5621875 21.52712891 -12.593125 22.83746094 -12.625 24.1875 C-12.66319338 25.5228116 -12.70224591 26.85809892 -12.7421875 28.19335938 C-12.83659153 31.46209888 -12.92217017 34.73083064 -13 38 C-13.66 37.67 -14.32 37.34 -15 37 C-15.0992502 32.96166211 -15.17164562 28.92380128 -15.21972656 24.88452148 C-15.2397799 23.51199977 -15.26703028 22.13956283 -15.30175781 20.76733398 C-15.35054552 18.78927956 -15.37088876 16.81058881 -15.390625 14.83203125 C-15.41157227 13.64327393 -15.43251953 12.4545166 -15.45410156 11.22973633 C-14.90640008 7.33428312 -13.80552348 5.71547503 -11 3 C-7.08727759 2.03898046 -4.83347302 1.72217566 -1 3 C-0.67 2.01 -0.34 1.02 0 0 Z " fill="#F6EEFB" transform="translate(56,44)"/>
<path d="M0 0 C0.33 0 0.66 0 1 0 C1.33 8.25 1.66 16.5 2 25 C3.65 24.34 5.3 23.68 7 23 C7 23.99 7 24.98 7 26 C6.18917969 26.61488281 5.37835938 27.22976562 4.54296875 27.86328125 C1.63112887 30.6186702 1.52819669 33.12546018 1.30078125 37.04296875 C1.27822754 39.42437557 1.28310084 41.80616785 1.3125 44.1875 C1.28478516 45.36892578 1.25707031 46.55035156 1.22851562 47.76757812 C1.2511698 55.94573509 2.78648468 61.61169372 8 68 C16.75273844 76.55938992 29.53190895 75.02007418 41 75 C41 75.33 41 75.66 41 76 C40.44538086 76.02505615 39.89076172 76.0501123 39.31933594 76.07592773 C36.79601157 76.19227927 34.27302464 76.31482754 31.75 76.4375 C30.87730469 76.47681641 30.00460938 76.51613281 29.10546875 76.55664062 C28.26113281 76.59853516 27.41679688 76.64042969 26.546875 76.68359375 C25.77182617 76.72025146 24.99677734 76.75690918 24.19824219 76.79467773 C21.98653945 76.94080061 21.98653945 76.94080061 19.84790039 77.56665039 C16.48990068 78.35413216 14.1248473 76.26255225 11.3125 74.57421875 C4.21386574 69.74187144 0.18562763 64.35310554 -2 56 C-2.45510448 50.94347794 -2.38081217 45.94648727 -2.25 40.875 C-2.22988593 39.52346424 -2.2116439 38.17189926 -2.1953125 36.8203125 C-2.14853822 33.54611309 -2.0830014 30.27344752 -2 27 C-1.67 27 -1.34 27 -1 27 C-0.67 18.09 -0.34 9.18 0 0 Z " fill="#EAD3F5" transform="translate(43,54)"/>
<path d="M0 0 C1.670625 0.061875 1.670625 0.061875 3.375 0.125 C1.375 3.125 1.375 3.125 -3.625 5.125 C-3.955 18.985 -4.285 32.845 -4.625 47.125 C-5.615 47.125 -6.605 47.125 -7.625 47.125 C-7.64481934 46.13580566 -7.66463867 45.14661133 -7.68505859 44.12744141 C-7.76103456 40.46327923 -7.84976352 36.79951836 -7.94238281 33.13574219 C-7.98070585 31.54890862 -8.01555288 29.96198719 -8.046875 28.375 C-8.09245431 26.09603434 -8.15045838 23.81767532 -8.2109375 21.5390625 C-8.22248871 20.82755035 -8.23403992 20.11603821 -8.24594116 19.38296509 C-8.25908239 15.30396343 -8.25908239 15.30396343 -10.625 12.125 C-13.93183466 12.41483269 -13.93183466 12.41483269 -16.625 14.125 C-16.78480437 16.57108998 -16.88429447 18.99231058 -16.94140625 21.44140625 C-16.96218735 22.17246078 -16.98296844 22.90351532 -17.00437927 23.65672302 C-17.06995024 26.00021656 -17.12879432 28.34382539 -17.1875 30.6875 C-17.23067808 32.27279855 -17.27429213 33.85808529 -17.31835938 35.44335938 C-17.4256392 39.33712037 -17.5268849 43.23099772 -17.625 47.125 C-17.955 47.125 -18.285 47.125 -18.625 47.125 C-18.65005615 46.26745117 -18.6751123 45.40990234 -18.70092773 44.52636719 C-18.79623412 41.3356563 -18.89545751 38.14509781 -18.99731445 34.95458984 C-19.0405455 33.57540622 -19.08222866 32.19617315 -19.12231445 30.81689453 C-19.18030403 28.83093062 -19.24437723 26.84514731 -19.30859375 24.859375 C-19.36358032 23.06838379 -19.36358032 23.06838379 -19.41967773 21.24121094 C-19.5143621 18.23984329 -19.5143621 18.23984329 -20.23461914 15.87597656 C-20.625 14.125 -20.625 14.125 -19.1875 11.375 C-16.39684325 8.92466725 -15.8850012 8.80626554 -12.375 8.8125 C-10.51875 8.9671875 -10.51875 8.9671875 -8.625 9.125 C-8.17125 8.01125 -7.7175 6.8975 -7.25 5.75 C-4.74577295 0.16364734 -4.74577295 0.16364734 0 0 Z " fill="#E4CBF4" transform="translate(75.625,28.875)"/>
<path d="M0 0 C0.33 0 0.66 0 1 0 C1.00410889 0.58378418 1.00821777 1.16756836 1.01245117 1.76904297 C0.76963819 18.47304694 0.76963819 18.47304694 8.53515625 32.625 C13.05838317 36.38900917 18.2918051 37.23048479 24 38 C20.3984375 40.9921875 20.3984375 40.9921875 16.8125 41.0625 C8.24048759 38.67357851 3.39825509 34.00025257 -1.1015625 26.46484375 C-2.2174971 23.40330143 -1.76889104 22.15465011 -1 19 C-0.72133394 15.73410713 -0.58643341 12.46159352 -0.4375 9.1875 C-0.37272461 7.86202148 -0.37272461 7.86202148 -0.30664062 6.50976562 C-0.20108464 4.34000377 -0.10008929 2.1700209 0 0 Z " fill="#9215CF" transform="translate(46,88)"/>
<path d="M0 0 C0.33 0 0.66 0 1 0 C1.00410889 0.589021 1.00821777 1.17804199 1.01245117 1.78491211 C1.0457366 4.50339985 1.11641192 7.21974816 1.1875 9.9375 C1.19330078 10.86369141 1.19910156 11.78988281 1.20507812 12.74414062 C1.44021797 20.19023581 3.27325444 26.34449323 8.71142578 31.67871094 C12.87679347 35.11618729 16.69230711 35.72064774 22 36 C22 36.99 22 37.98 22 39 C16.04635092 39.49613742 11.95825874 38.39578225 7 35 C3.2387633 31.4477209 0.20551818 27.48831695 -0.22705078 22.25097656 C-0.21657715 21.22456055 -0.20610352 20.19814453 -0.1953125 19.140625 C-0.18886719 18.02558594 -0.18242188 16.91054687 -0.17578125 15.76171875 C-0.15902344 14.60285156 -0.14226563 13.44398437 -0.125 12.25 C-0.11597656 11.07566406 -0.10695312 9.90132812 -0.09765625 8.69140625 C-0.07410063 5.79406464 -0.04120652 2.89713559 0 0 Z " fill="#EFDEF8" transform="translate(48,87)"/>
<path d="M0 0 C5.03583759 0.17070636 7.12994553 0.27199524 11.0625 3.5625 C12.92406511 6.8652768 13.83912052 8.91996277 13.11328125 12.703125 C10.52143648 18.05051001 5.5796927 22.31422186 1 26 C-1.35546875 26.81640625 -1.35546875 26.81640625 -3 27 C-0.37159758 22.81402577 2.28153127 19.32705097 6 16 C6.66 16 7.32 16 8 16 C8.24954005 14.56589632 8.47392642 13.12739928 8.6875 11.6875 C8.87892578 10.48673828 8.87892578 10.48673828 9.07421875 9.26171875 C9.22049499 6.93173788 9.22049499 6.93173788 7.6484375 5.2734375 C5.85753753 3.88994606 4.03296695 2.98369369 2 2 C1.34 1.34 0.68 0.68 0 0 Z " fill="#F0E2F8" transform="translate(110,84)"/>
<path d="M0 0 C0.33 0 0.66 0 1 0 C1.33 8.25 1.66 16.5 2 25 C3.65 24.34 5.3 23.68 7 23 C7 26 7 26 4.625 28.5 C3.325625 29.7375 3.325625 29.7375 2 31 C1.01 32.485 1.01 32.485 0 34 C-0.66 33.67 -1.32 33.34 -2 33 C-2 31.02 -2 29.04 -2 27 C-1.67 27 -1.34 27 -1 27 C-0.67 18.09 -0.34 9.18 0 0 Z " fill="#DFC0F2" transform="translate(43,54)"/>
<path d="M0 0 C0.66 0.33 1.32 0.66 2 1 C1.67 1.99 1.34 2.98 1 4 C0.85284801 5.62567079 0.75278133 7.25586857 0.68359375 8.88671875 C0.64169922 9.82451172 0.59980469 10.76230469 0.55664062 11.72851562 C0.49766602 13.19321289 0.49766602 13.19321289 0.4375 14.6875 C0.39431641 15.67556641 0.35113281 16.66363281 0.30664062 17.68164062 C0.20058346 20.12095546 0.09852286 22.56037113 0 25 C-0.99 25.33 -1.98 25.66 -3 26 C-3.086985 22.22931168 -3.14038579 18.45888068 -3.1875 14.6875 C-3.21263672 13.61564453 -3.23777344 12.54378906 -3.26367188 11.43945312 C-3.27333984 10.41142578 -3.28300781 9.38339844 -3.29296875 8.32421875 C-3.3086792 7.37635498 -3.32438965 6.42849121 -3.34057617 5.4519043 C-2.94475643 2.60228592 -2.22175281 1.75023895 0 0 Z " fill="#E2C3F2" transform="translate(50,83)"/>
<path d="M0 0 C0.33 0 0.66 0 1 0 C1.33 9.9 1.66 19.8 2 30 C4.97 30.33 7.94 30.66 11 31 C11 31.33 11 31.66 11 32 C3.74 32 -3.52 32 -11 32 C-11 31.67 -11 31.34 -11 31 C-7.7 30.67 -4.4 30.34 -1 30 C-0.67 20.1 -0.34 10.2 0 0 Z " fill="#FEFEFE" transform="translate(69,46)"/>
<path d="M0 0 C6.97630627 0.23648496 6.97630627 0.23648496 9.64453125 2.2265625 C11.84961219 4.70489555 12.95307829 6.56832023 13.3125 9.875 C13.1578125 10.926875 13.1578125 10.926875 13 12 C12.01 12.33 11.02 12.66 10 13 C9.71125 11.88625 9.4225 10.7725 9.125 9.625 C8.30758671 5.99708908 8.30758671 5.99708908 6 4 C5.34 3.67 4.68 3.34 4 3 C2 2 2 2 0 0 Z " fill="#EAD7F6" transform="translate(110,84)"/>
<path d="M0 0 C0.99 0.33 1.98 0.66 3 1 C1.38989473 5.07376031 -1.53822271 7.76507069 -4.625 10.75 C-5.140625 11.25660156 -5.65625 11.76320313 -6.1875 12.28515625 C-7.45383339 13.52803902 -8.7263144 14.76465276 -10 16 C-10.99 15.67 -11.98 15.34 -13 15 C-11.71802734 13.75283203 -11.71802734 13.75283203 -10.41015625 12.48046875 C-9.29400823 11.38307952 -8.17813718 10.28540855 -7.0625 9.1875 C-6.49853516 8.64029297 -5.93457031 8.09308594 -5.35351562 7.52929688 C-1.98970438 4.22039606 -1.98970438 4.22039606 0 0 Z " fill="#6300AC" transform="translate(31,14)"/>
<path d="M0 0 C0.99 0 1.98 0 3 0 C1.54308827 3.3994607 -0.1185928 5.66372389 -3 8 C-6.75 9.25 -6.75 9.25 -10 10 C-10.33 9.01 -10.66 8.02 -11 7 C-9.39125 6.38125 -9.39125 6.38125 -7.75 5.75 C-4.44382443 4.3568736 -2.49640861 2.58556606 0 0 Z " fill="#EFDDF8" transform="translate(95,122)"/>
<path d="M0 0 C0.99 0.33 1.98 0.66 3 1 C4.9336934 1.07131453 6.8697995 1.08404864 8.8046875 1.0625 C9.94550781 1.05476563 11.08632812 1.04703125 12.26171875 1.0390625 C14.66276133 1.01310528 17.06380301 0.98706417 19.46484375 0.9609375 C20.60824219 0.95320313 21.75164062 0.94546875 22.9296875 0.9375 C23.97366699 0.92589844 25.01764648 0.91429688 26.09326172 0.90234375 C28.84792796 0.99489091 31.32140844 1.37337117 34 2 C34 2.33 34 2.66 34 3 C22.45 3 10.9 3 -1 3 C-0.67 2.01 -0.34 1.02 0 0 Z " fill="#7900C8" transform="translate(54,79)"/>
<path d="M0 0 C0.5775 0.226875 1.155 0.45375 1.75 0.6875 C-1.37621626 4.08167765 -3.81541027 6.2937718 -8.25 7.6875 C-6.86345583 3.41232214 -5.12511737 -0.71182186 0 0 Z " fill="#8911CE" transform="translate(52.25,79.3125)"/>
<path d="M0 0 C0.33 0 0.66 0 1 0 C1.02505615 0.60473145 1.0501123 1.20946289 1.07592773 1.83251953 C1.19263006 4.5968562 1.31501734 7.36091366 1.4375 10.125 C1.47681641 11.07632813 1.51613281 12.02765625 1.55664062 13.0078125 C1.77053023 17.74628987 2.06561821 22.33594301 3 27 C2.34 27 1.68 27 1 27 C-0.3308911 24.33821779 -0.11268993 22.31260604 -0.09765625 19.3359375 C-0.09443359 18.21445313 -0.09121094 17.09296875 -0.08789062 15.9375 C-0.07951172 14.761875 -0.07113281 13.58625 -0.0625 12.375 C-0.05798828 11.19164063 -0.05347656 10.00828125 -0.04882812 8.7890625 C-0.03701467 5.85932493 -0.02054258 2.92968728 0 0 Z " fill="#FCFAFD" transform="translate(48,87)"/>
<path d="M0 0 C0 0.99 0 1.98 0 3 C-6.625 3.25 -6.625 3.25 -10 1 C-6.78548731 -0.60725635 -3.56387464 -0.05748185 0 0 Z " fill="#EAD1F5" transform="translate(70,123)"/>
<path d="M0 0 C1.670625 0.061875 1.670625 0.061875 3.375 0.125 C0.80095029 3.98607457 -1.23520259 4.06819692 -5.625 5.125 C-5.625 0.52392493 -4.48911497 0.15479707 0 0 Z " fill="#E5D0F5" transform="translate(75.625,28.875)"/>
<path d="M0 0 C0.66 0.33 1.32 0.66 2 1 C0.55746343 4.36591866 -1.33264727 6.51047079 -4 9 C-3.38461538 3.46153846 -3.38461538 3.46153846 -1.4375 1.125 C-0.963125 0.75375 -0.48875 0.3825 0 0 Z " fill="#EBDAF7" transform="translate(59,38)"/>
<path d="M0 0 C2.3125 1.3125 2.3125 1.3125 3.3125 4.3125 C2.6525 4.9725 1.9925 5.6325 1.3125 6.3125 C0.7246875 5.3534375 0.7246875 5.3534375 0.125 4.375 C-2.07222296 1.87471181 -3.44541433 1.66299575 -6.6875 1.3125 C-4.05994667 -0.43920222 -3.12850084 -0.80031417 0 0 Z " fill="#E2CBF4" transform="translate(95.6875,38.6875)"/>
<path d="M0 0 C4.51720311 -0.36625971 4.51720311 -0.36625971 6.8125 1.375 C8 3 8 3 8 5 C4.20411134 4.45773019 2.52788007 2.79872437 0 0 Z " fill="#EFE3F9" transform="translate(75,30)"/>
<path d="M0 0 C0.66 0.33 1.32 0.66 2 1 C-1.465 3.97 -1.465 3.97 -5 7 C-3.38262276 3.76524552 -2.52370777 2.29427979 0 0 Z " fill="#000000" transform="translate(25,19)"/>
<path d="M0 0 C0.66 0.66 1.32 1.32 2 2 C1.625 4.125 1.625 4.125 1 6 C0.67 4.02 0.34 2.04 0 0 Z " fill="#000000" transform="translate(160,53)"/>
<path d="M0 0 C0.99 0.99 1.98 1.98 3 3 C2.01 2.67 1.02 2.34 0 2 C0 1.34 0 0.68 0 0 Z " fill="#000000" transform="translate(22,137)"/>
<path d="M0 0 C0.99 0.495 0.99 0.495 2 1 C1.67 1.99 1.34 2.98 1 4 C0.67 2.68 0.34 1.36 0 0 Z " fill="#000000" transform="translate(156,44)"/>
<path d="M0 0 C0.33 0.66 0.66 1.32 1 2 C0.34 2.66 -0.32 3.32 -1 4 C-0.67 2.68 -0.34 1.36 0 0 Z " fill="#000000" transform="translate(7,43)"/>
<path d="M0 0 C1 4 1 4 1 4 Z " fill="#000000" transform="translate(1,100)"/>
<path d="M0 0 C1 4 1 4 1 4 Z " fill="#000000" transform="translate(0,96)"/>
<path d="M0 0 C1 4 1 4 1 4 Z " fill="#000000" transform="translate(0,61)"/>
<path d="M0 0 C1 4 1 4 1 4 Z " fill="#000000" transform="translate(1,57)"/>
<path d="M0 0 C3 1 3 1 3 1 Z " fill="#000000" transform="translate(97,161)"/>
<path d="M0 0 C3 1 3 1 3 1 Z " fill="#000000" transform="translate(63,161)"/>
<path d="M0 0 C3 1 3 1 3 1 Z " fill="#000000" transform="translate(59,160)"/>
<path d="" fill="#000000" transform="translate(0,0)"/>
<path d="" fill="#000000" transform="translate(0,0)"/>
<path d="" fill="#000000" transform="translate(0,0)"/>
<path d="" fill="#000000" transform="translate(0,0)"/>
<path d="" fill="#000000" transform="translate(0,0)"/>
<path d="" fill="#000000" transform="translate(0,0)"/>
<path d="" fill="#000000" transform="translate(0,0)"/>
<path d="" fill="#000000" transform="translate(0,0)"/>
<path d="M0 0 C3 1 3 1 3 1 Z " fill="#000000" transform="translate(108,2)"/>
<path d="M0 0 C3 1 3 1 3 1 Z " fill="#000000" transform="translate(105,1)"/>
<path d="M0 0 C3 1 3 1 3 1 Z " fill="#000000" transform="translate(55,1)"/>
<path d="M0 0 C3 1 3 1 3 1 Z " fill="#000000" transform="translate(102,0)"/>
<path d="M0 0 C2 1 2 1 2 1 Z " fill="#000000" transform="translate(102,160)"/>
<path d="M0 0 C2 1 2 1 2 1 Z " fill="#000000" transform="translate(105,159)"/>
<path d="M0 0 C2 1 2 1 2 1 Z " fill="#000000" transform="translate(56,159)"/>
<path d="M0 0 C2 1 2 1 2 1 Z " fill="#000000" transform="translate(108,158)"/>
<path d="M0 0 C2 1 2 1 2 1 Z " fill="#000000" transform="translate(53,158)"/>
<path d="M0 0 C2 1 2 1 2 1 Z " fill="#000000" transform="translate(111,157)"/>
<path d="M0 0 C2 1 2 1 2 1 Z " fill="#000000" transform="translate(48,156)"/>
<path d="M0 0 C2 1 2 1 2 1 Z " fill="#000000" transform="translate(37,150)"/>
<path d="M0 0 C2 1 2 1 2 1 Z " fill="#000000" transform="translate(126,149)"/>
<path d="M0 0 C2 1 2 1 2 1 Z " fill="#000000" transform="translate(34,148)"/>
<path d="" fill="#000000" transform="translate(0,0)"/>
<path d="" fill="#000000" transform="translate(0,0)"/>
<path d="" fill="#000000" transform="translate(0,0)"/>
<path d="" fill="#000000" transform="translate(0,0)"/>
<path d="" fill="#000000" transform="translate(0,0)"/>
<path d="" fill="#000000" transform="translate(0,0)"/>
<path d="" fill="#000000" transform="translate(0,0)"/>
<path d="" fill="#000000" transform="translate(0,0)"/>
<path d="" fill="#000000" transform="translate(0,0)"/>
<path d="" fill="#000000" transform="translate(0,0)"/>
<path d="" fill="#000000" transform="translate(0,0)"/>
<path d="" fill="#000000" transform="translate(0,0)"/>
<path d="" fill="#000000" transform="translate(0,0)"/>
<path d="" fill="#000000" transform="translate(0,0)"/>
<path d="" fill="#000000" transform="translate(0,0)"/>
<path d="" fill="#000000" transform="translate(0,0)"/>
<path d="" fill="#000000" transform="translate(0,0)"/>
<path d="" fill="#000000" transform="translate(0,0)"/>
<path d="" fill="#000000" transform="translate(0,0)"/>
<path d="" fill="#000000" transform="translate(0,0)"/>
<path d="" fill="#000000" transform="translate(0,0)"/>
<path d="" fill="#000000" transform="translate(0,0)"/>
<path d="" fill="#000000" transform="translate(0,0)"/>
<path d="" fill="#000000" transform="translate(0,0)"/>
<path d="" fill="#000000" transform="translate(0,0)"/>
<path d="" fill="#000000" transform="translate(0,0)"/>
<path d="" fill="#000000" transform="translate(0,0)"/>
<path d="" fill="#000000" transform="translate(0,0)"/>
<path d="M0 0 C2 1 2 1 2 1 Z " fill="#000000" transform="translate(42,7)"/>
<path d="M0 0 C2 1 2 1 2 1 Z " fill="#000000" transform="translate(50,3)"/>
<path d="M0 0 C2 1 2 1 2 1 Z " fill="#000000" transform="translate(53,2)"/>
<path d="" fill="#000000" transform="translate(0,0)"/>
<path d="" fill="#000000" transform="translate(0,0)"/>
<path d="" fill="#000000" transform="translate(0,0)"/>
<path d="" fill="#000000" transform="translate(0,0)"/>
<path d="" fill="#000000" transform="translate(0,0)"/>
<path d="" fill="#000000" transform="translate(0,0)"/>
<path d="" fill="#000000" transform="translate(0,0)"/>
<path d="" fill="#000000" transform="translate(0,0)"/>
<path d="" fill="#000000" transform="translate(0,0)"/>
<path d="" fill="#000000" transform="translate(0,0)"/>
<path d="" fill="#000000" transform="translate(0,0)"/>
<path d="" fill="#000000" transform="translate(0,0)"/>
<path d="" fill="#000000" transform="translate(0,0)"/>
<path d="" fill="#000000" transform="translate(0,0)"/>
<path d="" fill="#000000" transform="translate(0,0)"/>
<path d="" fill="#000000" transform="translate(0,0)"/>
<path d="" fill="#000000" transform="translate(0,0)"/>
<path d="" fill="#000000" transform="translate(0,0)"/>
<path d="" fill="#000000" transform="translate(0,0)"/>
<path d="" fill="#000000" transform="translate(0,0)"/>
<path d="" fill="#000000" transform="translate(0,0)"/>
<path d="" fill="#000000" transform="translate(0,0)"/>
<path d="" fill="#000000" transform="translate(0,0)"/>
<path d="" fill="#000000" transform="translate(0,0)"/>
<path d="" fill="#000000" transform="translate(0,0)"/>
<path d="" fill="#000000" transform="translate(0,0)"/>
<path d="" fill="#000000" transform="translate(0,0)"/>
<path d="" fill="#000000" transform="translate(0,0)"/>
<path d="" fill="#000000" transform="translate(0,0)"/>
<path d="" fill="#000000" transform="translate(0,0)"/>
<path d="" fill="#000000" transform="translate(0,0)"/>
<path d="" fill="#000000" transform="translate(0,0)"/>
<path d="" fill="#000000" transform="translate(0,0)"/>
<path d="" fill="#000000" transform="translate(0,0)"/>
<path d="" fill="#000000" transform="translate(0,0)"/>
<path d="" fill="#000000" transform="translate(0,0)"/>
<path d="" fill="#000000" transform="translate(0,0)"/>
<path d="" fill="#000000" transform="translate(0,0)"/>
<path d="" fill="#000000" transform="translate(0,0)"/>
<path d="" fill="#000000" transform="translate(0,0)"/>
<path d="" fill="#000000" transform="translate(0,0)"/>
<path d="" fill="#000000" transform="translate(0,0)"/>
<path d="" fill="#000000" transform="translate(0,0)"/>
<path d="" fill="#000000" transform="translate(0,0)"/>
<path d="" fill="#000000" transform="translate(0,0)"/>
<path d="" fill="#000000" transform="translate(0,0)"/>
<path d="" fill="#000000" transform="translate(0,0)"/>
<path d="" fill="#000000" transform="translate(0,0)"/>
<path d="" fill="#000000" transform="translate(0,0)"/>
<path d="" fill="#000000" transform="translate(0,0)"/>
<path d="" fill="#000000" transform="translate(0,0)"/>
<path d="" fill="#000000" transform="translate(0,0)"/>
<path d="" fill="#000000" transform="translate(0,0)"/>
<path d="" fill="#000000" transform="translate(0,0)"/>
<path d="" fill="#000000" transform="translate(0,0)"/>
<path d="" fill="#000000" transform="translate(0,0)"/>
<path d="" fill="#000000" transform="translate(0,0)"/>
</svg>
